<svg width="709" height="1049" viewBox="0 0 709 1049" fill="none" xmlns="http://www.w3.org/2000/svg">
<path d="M694.696 256.913H14L70.587 951.652L354.348 1035.5L635.63 951.652L694.696 256.913Z" stroke="white" stroke-width="25"/>
<path d="M202.442 96.45C202.442 79.55 207.392 66 217.292 55.8C227.192 45.5 240.342 40.35 256.742 40.35C271.342 40.45 282.692 44.15 290.792 51.45C298.992 58.65 303.792 69.1 305.192 82.8H273.092C271.092 72.3 265.342 67.05 255.842 67.05C248.742 67.05 243.542 69.9 240.242 75.6C237.042 81.2 235.442 88.15 235.442 96.45C235.442 104.75 237.042 111.75 240.242 117.45C243.542 123.05 248.742 125.85 255.842 125.85C261.042 125.85 264.942 124.3 267.542 121.2C270.142 118.1 272.042 113.7 273.242 108H305.642C305.642 119.7 301.192 130.05 292.292 139.05C283.392 148.05 271.542 152.55 256.742 152.55C239.842 152.55 226.542 147.3 216.842 136.8C207.242 126.2 202.442 112.75 202.442 96.45ZM312.66 114H345.66C345.66 116.5 346.06 118.85 346.86 121.05C348.76 126.25 354.01 128.85 362.61 128.85C366.11 128.85 369.26 128.1 372.06 126.6C374.86 125.1 376.26 122.6 376.26 119.1C376.26 116.5 374.86 114.5 372.06 113.1C369.26 111.7 362.96 109.6 353.16 106.8C341.86 103.6 334.16 100.8 330.06 98.4C321.26 93.3 316.86 85.75 316.86 75.75C316.86 64.15 321.01 55.35 329.31 49.35C337.71 43.35 347.96 40.35 360.06 40.35C372.86 40.35 383.41 43.15 391.71 48.75C400.01 54.35 404.36 63.2 404.76 75.3H373.56C374.06 71.6 372.76 68.75 369.66 66.75C367.06 64.95 363.81 64.05 359.91 64.05C356.91 64.05 354.16 64.6 351.66 65.7C349.26 66.7 348.06 68.55 348.06 71.25C348.16 72.65 348.71 73.95 349.71 75.15C350.81 76.25 352.61 77.3 355.11 78.3C357.61 79.2 359.76 79.9 361.56 80.4C363.36 80.9 366.31 81.65 370.41 82.65C374.51 83.65 377.41 84.35 379.11 84.75C383.51 86.05 387.26 87.4 390.36 88.8C393.46 90.1 396.56 91.95 399.66 94.35C402.86 96.65 405.26 99.6 406.86 103.2C408.46 106.8 409.26 110.95 409.26 115.65C409.26 122.35 407.81 128.2 404.91 133.2C402.11 138.1 398.26 141.9 393.36 144.6C388.56 147.3 383.36 149.3 377.76 150.6C372.16 151.9 366.16 152.55 359.76 152.55C356.76 152.55 353.56 152.3 350.16 151.8C346.76 151.4 342.71 150.4 338.01 148.8C333.41 147.2 329.31 145.1 325.71 142.5C322.11 139.8 319.01 136 316.41 131.1C313.91 126.2 312.66 120.5 312.66 114ZM412.709 114H445.709C445.709 116.5 446.109 118.85 446.909 121.05C448.809 126.25 454.059 128.85 462.659 128.85C466.159 128.85 469.309 128.1 472.109 126.6C474.909 125.1 476.309 122.6 476.309 119.1C476.309 116.5 474.909 114.5 472.109 113.1C469.309 111.7 463.009 109.6 453.209 106.8C441.909 103.6 434.209 100.8 430.109 98.4C421.309 93.3 416.909 85.75 416.909 75.75C416.909 64.15 421.059 55.35 429.359 49.35C437.759 43.35 448.009 40.35 460.109 40.35C472.909 40.35 483.459 43.15 491.759 48.75C500.059 54.35 504.409 63.2 504.809 75.3H473.609C474.109 71.6 472.809 68.75 469.709 66.75C467.109 64.95 463.859 64.05 459.959 64.05C456.959 64.05 454.209 64.6 451.709 65.7C449.309 66.7 448.109 68.55 448.109 71.25C448.209 72.65 448.759 73.95 449.759 75.15C450.859 76.25 452.659 77.3 455.159 78.3C457.659 79.2 459.809 79.9 461.609 80.4C463.409 80.9 466.359 81.65 470.459 82.65C474.559 83.65 477.459 84.35 479.159 84.75C483.559 86.05 487.309 87.4 490.409 88.8C493.509 90.1 496.609 91.95 499.709 94.35C502.909 96.65 505.309 99.6 506.909 103.2C508.509 106.8 509.309 110.95 509.309 115.65C509.309 122.35 507.859 128.2 504.959 133.2C502.159 138.1 498.309 141.9 493.409 144.6C488.609 147.3 483.409 149.3 477.809 150.6C472.209 151.9 466.209 152.55 459.809 152.55C456.809 152.55 453.609 152.3 450.209 151.8C446.809 151.4 442.759 150.4 438.059 148.8C433.459 147.2 429.359 145.1 425.759 142.5C422.159 139.8 419.059 136 416.459 131.1C413.959 126.2 412.709 120.5 412.709 114Z" fill="white"/>
<path fill-rule="evenodd" clip-rule="evenodd" d="M560.5 415.658V402H150.257L159.136 480H357.5L168.042 558.234L177.521 641.5H456L445 746L357.5 767.5L265.5 738L254.5 681.5H182.074L197.597 817.859L357.5 861L518.628 816.75L545.118 563H370L553.463 483.066L560.5 415.658Z" fill="white"/>
</svg>
