<svg width="709" height="1049" viewBox="0 0 709 1049" fill="none" xmlns="http://www.w3.org/2000/svg">
<path d="M694.696 256.913H14L70.587 951.652L354.348 1035.5L635.63 951.652L694.696 256.913Z" stroke="white" stroke-width="25"/>
<path d="M569.957 402.304H143.283L159.391 660.869H463.391L449.761 767.848L356.413 792.63L265.957 767.848L252.326 699.695H159.391L177.152 831.043L356.413 885.565L533.609 831.043L558.391 567.935H238.696V484.087H558.391L569.957 402.304Z" fill="white" stroke="white"/>
<path d="M137.55 150V42.9H170.55V80.1H201.45V42.9H234.45V150H201.45V107.55H170.55V150H137.55ZM276.418 150V70.35H246.418V42.9H339.418V70.35H309.418V150H276.418ZM351.414 150V42.9H398.364L413.664 105.9H413.964L429.264 42.9H476.214V150H445.014V81.3H444.714L426.114 150H401.514L382.914 81.3H382.614V150H351.414ZM493.214 150V42.9H526.214V122.55H573.614V150H493.214Z" fill="white"/>
</svg>
