<svg width="709" height="1049" viewBox="0 0 709 1049" fill="none" xmlns="http://www.w3.org/2000/svg">
<path d="M694.696 256.913H14L70.587 951.652L354.348 1035.5L635.63 951.652L694.696 256.913Z" stroke="white" stroke-width="25"/>
<path d="M261.876 114V105H291.576V111.15C291.576 113.35 291.576 115 291.576 116.1C291.676 117.2 291.876 118.6 292.176 120.3C292.476 121.9 292.926 123.1 293.526 123.9C294.126 124.7 294.976 125.45 296.076 126.15C297.276 126.75 298.726 127.05 300.426 127.05C305.726 127.05 308.376 122.9 308.376 114.6V42.9H341.376V111.45C341.376 125.95 338.076 136.45 331.476 142.95C324.976 149.35 314.876 152.55 301.176 152.55C287.976 152.55 278.126 149.15 271.626 142.35C265.126 135.55 261.876 126.1 261.876 114ZM351.625 114H384.625C384.625 116.5 385.025 118.85 385.825 121.05C387.725 126.25 392.975 128.85 401.575 128.85C405.075 128.85 408.225 128.1 411.025 126.6C413.825 125.1 415.225 122.6 415.225 119.1C415.225 116.5 413.825 114.5 411.025 113.1C408.225 111.7 401.925 109.6 392.125 106.8C380.825 103.6 373.125 100.8 369.025 98.4C360.225 93.3 355.825 85.75 355.825 75.75C355.825 64.15 359.975 55.35 368.275 49.35C376.675 43.35 386.925 40.35 399.025 40.35C411.825 40.35 422.375 43.15 430.675 48.75C438.975 54.35 443.325 63.2 443.725 75.3H412.525C413.025 71.6 411.725 68.75 408.625 66.75C406.025 64.95 402.775 64.05 398.875 64.05C395.875 64.05 393.125 64.6 390.625 65.7C388.225 66.7 387.025 68.55 387.025 71.25C387.125 72.65 387.675 73.95 388.675 75.15C389.775 76.25 391.575 77.3 394.075 78.3C396.575 79.2 398.725 79.9 400.525 80.4C402.325 80.9 405.275 81.65 409.375 82.65C413.475 83.65 416.375 84.35 418.075 84.75C422.475 86.05 426.225 87.4 429.325 88.8C432.425 90.1 435.525 91.95 438.625 94.35C441.825 96.65 444.225 99.6 445.825 103.2C447.425 106.8 448.225 110.95 448.225 115.65C448.225 122.35 446.775 128.2 443.875 133.2C441.075 138.1 437.225 141.9 432.325 144.6C427.525 147.3 422.325 149.3 416.725 150.6C411.125 151.9 405.125 152.55 398.725 152.55C395.725 152.55 392.525 152.3 389.125 151.8C385.725 151.4 381.675 150.4 376.975 148.8C372.375 147.2 368.275 145.1 364.675 142.5C361.075 139.8 357.975 136 355.375 131.1C352.875 126.2 351.625 120.5 351.625 114Z" fill="white"/>
<path fill-rule="evenodd" clip-rule="evenodd" d="M254.651 401L268 754L213.5 740V694.5L161 685.5L174 815L324 857.5V401H254.651ZM356.5 401V644L461 636.5L453 746L356.5 770V860.5L514.5 813L534 561.5H428.5L432 475.5H540L547.866 401H356.5Z" fill="white"/>
</svg>
