<svg width="34" height="24" viewBox="0 0 34 24" fill="none" xmlns="http://www.w3.org/2000/svg">
<path d="M2 10.3571C1.17157 10.3571 0.5 11.0287 0.5 11.8571C0.5 12.6856 1.17157 13.3571 2 13.3571V10.3571ZM32 13.3571C32.8284 13.3571 33.5 12.6856 33.5 11.8571C33.5 11.0287 32.8284 10.3571 32 10.3571V13.3571ZM2 0.5C1.17157 0.5 0.5 1.17157 0.5 2C0.5 2.82843 1.17157 3.5 2 3.5V0.5ZM32 3.5C32.8284 3.5 33.5 2.82843 33.5 2C33.5 1.17157 32.8284 0.5 32 0.5V3.5ZM2 20.2143C1.17157 20.2143 0.5 20.8859 0.5 21.7143C0.5 22.5427 1.17157 23.2143 2 23.2143V20.2143ZM32 23.2143C32.8284 23.2143 33.5 22.5427 33.5 21.7143C33.5 20.8859 32.8284 20.2143 32 20.2143V23.2143ZM2 13.3571H32V10.3571H2V13.3571ZM2 3.5H32V0.5H2V3.5ZM2 23.2143H32V20.2143H2V23.2143Z" fill="white"/>
</svg>
